<?xml version="1.0" encoding="UTF-8" standalone="no"?>
<!DOCTYPE svg PUBLIC "-//W3C//DTD SVG 1.1//EN"
 "http://www.w3.org/Graphics/SVG/1.1/DTD/svg11.dtd">
<!-- Generated by graphviz version 10.0.1 (20240210.2158)
 -->
<!-- Title: fibonacci.test.exe Pages: 1 -->
<svg width="100%" height="100%" xmlns="http://www.w3.org/2000/svg" xmlns:xlink="http://www.w3.org/1999/xlink">
<script type="text/ecmascript"><![CDATA[
/**
 *  SVGPan library 1.2.2
 * ======================
 *
 * Given an unique existing element with id "viewport" (or when missing, the
 * first g-element), including the library into any SVG adds the following
 * capabilities:
 *
 *  - Mouse panning
 *  - Mouse zooming (using the wheel)
 *  - Object dragging
 *
 * You can configure the behaviour of the pan/zoom/drag with the variables
 * listed in the CONFIGURATION section of this file.
 *
 * Known issues:
 *
 *  - Zooming (while panning) on Safari has still some issues
 *
 * Releases:
 *
 * 1.2.2, Tue Aug 30 17:21:56 CEST 2011, Andrea Leofreddi
 *	- Fixed viewBox on root tag (#7)
 *	- Improved zoom speed (#2)
 *
 * 1.2.1, Mon Jul  4 00:33:18 CEST 2011, Andrea Leofreddi
 *	- Fixed a regression with mouse wheel (now working on Firefox 5)
 *	- Working with viewBox attribute (#4)
 *	- Added "use strict;" and fixed resulting warnings (#5)
 *	- Added configuration variables, dragging is disabled by default (#3)
 *
 * 1.2, Sat Mar 20 08:42:50 GMT 2010, Zeng Xiaohui
 *	Fixed a bug with browser mouse handler interaction
 *
 * 1.1, Wed Feb  3 17:39:33 GMT 2010, Zeng Xiaohui
 *	Updated the zoom code to support the mouse wheel on Safari/Chrome
 *
 * 1.0, Andrea Leofreddi
 *	First release
 *
 * This code is licensed under the following BSD license:
 *
 * Copyright 2009-2017 Andrea Leofreddi <a.leofreddi@vleo.net>. All rights reserved.
 *
 * Redistribution and use in source and binary forms, with or without modification, are
 * permitted provided that the following conditions are met:
 *
 *    1. Redistributions of source code must retain the above copyright
 *       notice, this list of conditions and the following disclaimer.
 *    2. Redistributions in binary form must reproduce the above copyright
 *       notice, this list of conditions and the following disclaimer in the
 *       documentation and/or other materials provided with the distribution.
 *    3. Neither the name of the copyright holder nor the names of its
 *       contributors may be used to endorse or promote products derived from
 *       this software without specific prior written permission.
 *
 * THIS SOFTWARE IS PROVIDED BY COPYRIGHT HOLDERS AND CONTRIBUTORS ''AS IS'' AND ANY EXPRESS
 * OR IMPLIED WARRANTIES, INCLUDING, BUT NOT LIMITED TO, THE IMPLIED WARRANTIES OF MERCHANTABILITY
 * AND FITNESS FOR A PARTICULAR PURPOSE ARE DISCLAIMED. IN NO EVENT SHALL COPYRIGHT HOLDERS OR
 * CONTRIBUTORS BE LIABLE FOR ANY DIRECT, INDIRECT, INCIDENTAL, SPECIAL, EXEMPLARY, OR
 * CONSEQUENTIAL DAMAGES (INCLUDING, BUT NOT LIMITED TO, PROCUREMENT OF SUBSTITUTE GOODS OR
 * SERVICES; LOSS OF USE, DATA, OR PROFITS; OR BUSINESS INTERRUPTION) HOWEVER CAUSED AND ON
 * ANY THEORY OF LIABILITY, WHETHER IN CONTRACT, STRICT LIABILITY, OR TORT (INCLUDING
 * NEGLIGENCE OR OTHERWISE) ARISING IN ANY WAY OUT OF THE USE OF THIS SOFTWARE, EVEN IF
 * ADVISED OF THE POSSIBILITY OF SUCH DAMAGE.
 *
 * The views and conclusions contained in the software and documentation are those of the
 * authors and should not be interpreted as representing official policies, either expressed
 * or implied, of Andrea Leofreddi.
 */

"use strict";

/// CONFIGURATION
/// ====>

var enablePan = 1; // 1 or 0: enable or disable panning (default enabled)
var enableZoom = 1; // 1 or 0: enable or disable zooming (default enabled)
var enableDrag = 0; // 1 or 0: enable or disable dragging (default disabled)
var zoomScale = 0.2; // Zoom sensitivity

/// <====
/// END OF CONFIGURATION

var root = document.documentElement;

var state = 'none', svgRoot = null, stateTarget, stateOrigin, stateTf;

setupHandlers(root);

/**
 * Register handlers
 */
function setupHandlers(root){
	setAttributes(root, {
		"onmouseup" : "handleMouseUp(evt)",
		"onmousedown" : "handleMouseDown(evt)",
		"onmousemove" : "handleMouseMove(evt)",
		//"onmouseout" : "handleMouseUp(evt)", // Decomment this to stop the pan functionality when dragging out of the SVG element
	});

	if(navigator.userAgent.toLowerCase().indexOf('webkit') >= 0)
		window.addEventListener('mousewheel', handleMouseWheel, false); // Chrome/Safari
	else
		window.addEventListener('DOMMouseScroll', handleMouseWheel, false); // Others
}

/**
 * Retrieves the root element for SVG manipulation. The element is then cached into the svgRoot global variable.
 */
function getRoot(root) {
	if(svgRoot == null) {
		var r = root.getElementById("viewport") ? root.getElementById("viewport") : root.documentElement, t = r;

		while(t != root) {
			if(t.getAttribute("viewBox")) {
				setCTM(r, t.getCTM());

				t.removeAttribute("viewBox");
			}

			t = t.parentNode;
		}

		svgRoot = r;
	}

	return svgRoot;
}

/**
 * Instance an SVGPoint object with given event coordinates.
 */
function getEventPoint(evt) {
	var p = root.createSVGPoint();

	p.x = evt.clientX;
	p.y = evt.clientY;

	return p;
}

/**
 * Sets the current transform matrix of an element.
 */
function setCTM(element, matrix) {
	var s = "matrix(" + matrix.a + "," + matrix.b + "," + matrix.c + "," + matrix.d + "," + matrix.e + "," + matrix.f + ")";

	element.setAttribute("transform", s);
}

/**
 * Dumps a matrix to a string (useful for debug).
 */
function dumpMatrix(matrix) {
	var s = "[ " + matrix.a + ", " + matrix.c + ", " + matrix.e + "\n  " + matrix.b + ", " + matrix.d + ", " + matrix.f + "\n  0, 0, 1 ]";

	return s;
}

/**
 * Sets attributes of an element.
 */
function setAttributes(element, attributes){
	for (var i in attributes)
		element.setAttributeNS(null, i, attributes[i]);
}

/**
 * Handle mouse wheel event.
 */
function handleMouseWheel(evt) {
	if(!enableZoom)
		return;

	if(evt.preventDefault)
		evt.preventDefault();

	evt.returnValue = false;

	var svgDoc = evt.target.ownerDocument;

	var delta;

	if(evt.wheelDelta)
		delta = evt.wheelDelta / 360; // Chrome/Safari
	else
		delta = evt.detail / -9; // Mozilla

	var z = Math.pow(1 + zoomScale, delta);

	var g = getRoot(svgDoc);
	
	var p = getEventPoint(evt);

	p = p.matrixTransform(g.getCTM().inverse());

	// Compute new scale matrix in current mouse position
	var k = root.createSVGMatrix().translate(p.x, p.y).scale(z).translate(-p.x, -p.y);

        setCTM(g, g.getCTM().multiply(k));

	if(typeof(stateTf) == "undefined")
		stateTf = g.getCTM().inverse();

	stateTf = stateTf.multiply(k.inverse());
}

/**
 * Handle mouse move event.
 */
function handleMouseMove(evt) {
	if(evt.preventDefault)
		evt.preventDefault();

	evt.returnValue = false;

	var svgDoc = evt.target.ownerDocument;

	var g = getRoot(svgDoc);

	if(state == 'pan' && enablePan) {
		// Pan mode
		var p = getEventPoint(evt).matrixTransform(stateTf);

		setCTM(g, stateTf.inverse().translate(p.x - stateOrigin.x, p.y - stateOrigin.y));
	} else if(state == 'drag' && enableDrag) {
		// Drag mode
		var p = getEventPoint(evt).matrixTransform(g.getCTM().inverse());

		setCTM(stateTarget, root.createSVGMatrix().translate(p.x - stateOrigin.x, p.y - stateOrigin.y).multiply(g.getCTM().inverse()).multiply(stateTarget.getCTM()));

		stateOrigin = p;
	}
}

/**
 * Handle click event.
 */
function handleMouseDown(evt) {
	if(evt.preventDefault)
		evt.preventDefault();

	evt.returnValue = false;

	var svgDoc = evt.target.ownerDocument;

	var g = getRoot(svgDoc);

	if(
		evt.target.tagName == "svg"
		|| !enableDrag // Pan anyway when drag is disabled and the user clicked on an element
	) {
		// Pan mode
		state = 'pan';

		stateTf = g.getCTM().inverse();

		stateOrigin = getEventPoint(evt).matrixTransform(stateTf);
	} else {
		// Drag mode
		state = 'drag';

		stateTarget = evt.target;

		stateTf = g.getCTM().inverse();

		stateOrigin = getEventPoint(evt).matrixTransform(stateTf);
	}
}

/**
 * Handle mouse button release event.
 */
function handleMouseUp(evt) {
	if(evt.preventDefault)
		evt.preventDefault();

	evt.returnValue = false;

	var svgDoc = evt.target.ownerDocument;

	if(state == 'pan' || state == 'drag') {
		// Quit pan mode
		state = '';
	}
}
]]></script><g id="viewport" transform="scale(0.5,0.5) translate(0,0)"><g id="graph0" class="graph" transform="scale(1 1) rotate(0) translate(4 1249)">
<title>fibonacci.test.exe</title>
<polygon fill="white" stroke="none" points="-4,4 -4,-1249 1439.5,-1249 1439.5,4 -4,4"/>
<g id="clust1" class="cluster">
<title>cluster_L</title>
<polygon fill="none" stroke="black" points="8,-1073.25 8,-1237 924,-1237 924,-1073.25 8,-1073.25"/>
</g>
<!-- File: fibonacci.test.exe -->
<g id="node1" class="node">
<title>File: fibonacci.test.exe</title>
<g id="a_node1"><a xlink:title="fibonacci.test.exe">
<polygon fill="#f8f8f8" stroke="black" points="916.12,-1229 15.88,-1229 15.88,-1081.25 916.12,-1081.25 916.12,-1229"/>
<text text-anchor="start" x="23.88" y="-1209.8" font-family="Times New Roman,serif" font-size="16.00">File: fibonacci.test.exe</text>
<text text-anchor="start" x="23.88" y="-1192.55" font-family="Times New Roman,serif" font-size="16.00">Build ID: C:\Users\Hamid\AppData\Local\Temp\go&#45;build2875293334\b001\fibonacci.test.exe2024&#45;03&#45;06 23:47:10.4820251 +0330 +0330</text>
<text text-anchor="start" x="23.88" y="-1175.3" font-family="Times New Roman,serif" font-size="16.00">Type: alloc_space</text>
<text text-anchor="start" x="23.88" y="-1158.05" font-family="Times New Roman,serif" font-size="16.00">Time: Mar 6, 2024 at 11:47pm (+0330)</text>
<text text-anchor="start" x="23.88" y="-1140.8" font-family="Times New Roman,serif" font-size="16.00">Showing nodes accounting for 459.68MB, 98.92% of 464.68MB total</text>
<text text-anchor="start" x="23.88" y="-1123.55" font-family="Times New Roman,serif" font-size="16.00">Dropped 32 nodes (cum &lt;= 2.32MB)</text>
<text text-anchor="start" x="23.88" y="-1087.3" font-family="Times New Roman,serif" font-size="16.00">See https://git.io/JfYMW for how to read the graph</text>
</a>
</g>
</g>
<!-- N1 -->
<g id="node1" class="node">
<title>N1</title>
<g id="a_node1"><a xlink:title="testing.tRunner (463.68MB)">
<polygon fill="#edd5d5" stroke="#b20000" points="1039.62,-1174.88 934.38,-1174.88 934.38,-1135.38 1039.62,-1135.38 1039.62,-1174.88"/>
<text text-anchor="middle" x="987" y="-1163.28" font-family="Times New Roman,serif" font-size="8.00">testing</text>
<text text-anchor="middle" x="987" y="-1152.78" font-family="Times New Roman,serif" font-size="8.00">tRunner</text>
<text text-anchor="middle" x="987" y="-1142.28" font-family="Times New Roman,serif" font-size="8.00">0 of 463.68MB (99.78%)</text>
</a>
</g>
</g>
<!-- N10 -->
<g id="node10" class="node">
<title>N10</title>
<g id="a_node10"><a xlink:title="github.com/harpy&#45;wings/fibonacci&#45;kenshi/pkg/fibonacci.TestF (234MB)">
<polygon fill="#edd9d5" stroke="#b22100" points="1034,-1024.25 940,-1024.25 940,-984.75 1034,-984.75 1034,-1024.25"/>
<text text-anchor="middle" x="987" y="-1012.65" font-family="Times New Roman,serif" font-size="8.00">fibonacci</text>
<text text-anchor="middle" x="987" y="-1002.15" font-family="Times New Roman,serif" font-size="8.00">TestF</text>
<text text-anchor="middle" x="987" y="-991.65" font-family="Times New Roman,serif" font-size="8.00">0 of 234MB (50.36%)</text>
</a>
</g>
</g>
<!-- N1&#45;&gt;N10 -->
<g id="edge17" class="edge">
<title>N1&#45;&gt;N10</title>
<g id="a_edge17"><a xlink:title="testing.tRunner &#45;&gt; github.com/harpy&#45;wings/fibonacci&#45;kenshi/pkg/fibonacci.TestF (234MB)">
<path fill="none" stroke="#b22100" stroke-width="3" d="M987,-1135C987,-1110.7 987,-1068.36 987,-1038.73"/>
<polygon fill="#b22100" stroke="#b22100" stroke-width="3" points="990.5,-1039.09 987,-1029.09 983.5,-1039.09 990.5,-1039.09"/>
</a>
</g>
<g id="a_edge17&#45;label"><a xlink:title="testing.tRunner &#45;&gt; github.com/harpy&#45;wings/fibonacci&#45;kenshi/pkg/fibonacci.TestF (234MB)">
<text text-anchor="middle" x="1009.5" y="-1049.95" font-family="Times New Roman,serif" font-size="14.00"> 234MB</text>
</a>
</g>
</g>
<!-- N11 -->
<g id="node11" class="node">
<title>N11</title>
<g id="a_node11"><a xlink:title="github.com/harpy&#45;wings/fibonacci&#45;kenshi/pkg/fibonacci.TestNew.func1 (228.63MB)">
<polygon fill="#edd9d5" stroke="#b22200" points="1157.62,-1029.5 1052.38,-1029.5 1052.38,-979.5 1157.62,-979.5 1157.62,-1029.5"/>
<text text-anchor="middle" x="1105" y="-1017.9" font-family="Times New Roman,serif" font-size="8.00">fibonacci</text>
<text text-anchor="middle" x="1105" y="-1007.4" font-family="Times New Roman,serif" font-size="8.00">TestNew</text>
<text text-anchor="middle" x="1105" y="-996.9" font-family="Times New Roman,serif" font-size="8.00">func1</text>
<text text-anchor="middle" x="1105" y="-986.4" font-family="Times New Roman,serif" font-size="8.00">0 of 228.63MB (49.20%)</text>
</a>
</g>
</g>
<!-- N1&#45;&gt;N11 -->
<g id="edge20" class="edge">
<title>N1&#45;&gt;N11</title>
<g id="a_edge20"><a xlink:title="testing.tRunner &#45;&gt; github.com/harpy&#45;wings/fibonacci&#45;kenshi/pkg/fibonacci.TestNew.func1 (228.63MB)">
<path fill="none" stroke="#b22200" stroke-width="3" d="M1002.18,-1135C1020.98,-1111.33 1053.36,-1070.54 1076.77,-1041.06"/>
<polygon fill="#b22200" stroke="#b22200" stroke-width="3" points="1079.26,-1043.55 1082.74,-1033.54 1073.78,-1039.19 1079.26,-1043.55"/>
</a>
</g>
<g id="a_edge20&#45;label"><a xlink:title="testing.tRunner &#45;&gt; github.com/harpy&#45;wings/fibonacci&#45;kenshi/pkg/fibonacci.TestNew.func1 (228.63MB)">
<text text-anchor="middle" x="1101.12" y="-1049.95" font-family="Times New Roman,serif" font-size="14.00"> 228.63MB</text>
</a>
</g>
</g>
<!-- N2 -->
<g id="node2" class="node">
<title>N2</title>
<g id="a_node2"><a xlink:title="github.com/harpy&#45;wings/fibonacci&#45;kenshi/pkg/fibonacci.(*Fibonacci).f (462.68MB)">
<polygon fill="#edd5d5" stroke="#b20000" points="1038.5,-633 935.5,-633 935.5,-568.75 1038.5,-568.75 1038.5,-633"/>
<text text-anchor="middle" x="987" y="-619.5" font-family="Times New Roman,serif" font-size="10.00">fibonacci</text>
<text text-anchor="middle" x="987" y="-608.25" font-family="Times New Roman,serif" font-size="10.00">(*Fibonacci)</text>
<text text-anchor="middle" x="987" y="-597" font-family="Times New Roman,serif" font-size="10.00">f</text>
<text text-anchor="middle" x="987" y="-585.75" font-family="Times New Roman,serif" font-size="10.00">2.50MB (0.54%)</text>
<text text-anchor="middle" x="987" y="-574.5" font-family="Times New Roman,serif" font-size="10.00">of 462.68MB (99.57%)</text>
</a>
</g>
</g>
<!-- NN2_0 -->
<g id="NN2_0" class="node">
<title>NN2_0</title>
<g id="a_NN2_0"><a xlink:title="0.50MB">
<polygon fill="#f8f8f8" stroke="black" points="982,-517 932,-517 928,-513 928,-481 978,-481 982,-485 982,-517"/>
<polyline fill="none" stroke="black" points="978,-513 928,-513"/>
<polyline fill="none" stroke="black" points="978,-513 978,-481"/>
<polyline fill="none" stroke="black" points="978,-513 982,-517"/>
<text text-anchor="middle" x="955" y="-496.65" font-family="Times New Roman,serif" font-size="8.00">16B..576B</text>
</a>
</g>
</g>
<!-- N2&#45;&gt;NN2_0 -->
<g id="edge1" class="edge">
<title>N2&#45;&gt;NN2_0</title>
<g id="a_edge1"><a xlink:title="0.50MB">
<path fill="none" stroke="black" d="M963.88,-568.29C960.77,-562.69 958.05,-556.72 956.25,-550.75 954.14,-543.74 953.27,-535.95 953.06,-528.61"/>
<polygon fill="black" stroke="black" points="956.55,-528.83 953.17,-518.79 949.55,-528.74 956.55,-528.83"/>
</a>
</g>
<g id="a_edge1&#45;label"><a xlink:title="0.50MB">
<text text-anchor="middle" x="981.38" y="-537.45" font-family="Times New Roman,serif" font-size="14.00"> 0.50MB</text>
</a>
</g>
</g>
<!-- N6 -->
<g id="node6" class="node">
<title>N6</title>
<g id="a_node6"><a xlink:title="github.com/patrickmn/go&#45;cache.(*cache).Set (23.92MB)">
<polygon fill="#edeae7" stroke="#b29f84" points="925.25,-444 808.75,-444 808.75,-373 925.25,-373 925.25,-444"/>
<text text-anchor="middle" x="867" y="-426.7" font-family="Times New Roman,serif" font-size="14.00">go&#45;cache</text>
<text text-anchor="middle" x="867" y="-410.95" font-family="Times New Roman,serif" font-size="14.00">(*cache)</text>
<text text-anchor="middle" x="867" y="-395.2" font-family="Times New Roman,serif" font-size="14.00">Set</text>
<text text-anchor="middle" x="867" y="-379.45" font-family="Times New Roman,serif" font-size="14.00">23.92MB (5.15%)</text>
</a>
</g>
</g>
<!-- N2&#45;&gt;N6 -->
<g id="edge26" class="edge">
<title>N2&#45;&gt;N6</title>
<g id="a_edge26"><a xlink:title="github.com/harpy&#45;wings/fibonacci&#45;kenshi/pkg/fibonacci.(*Fibonacci).f &#45;&gt; github.com/patrickmn/go&#45;cache.(*cache).Set (23.92MB)">
<path fill="none" stroke="#b29f84" d="M1000.39,-568.35C1002.3,-562.59 1003.97,-556.56 1005,-550.75 1010.52,-519.62 1010.15,-506.16 991,-481 976.71,-462.22 955.95,-447.54 935.5,-436.49"/>
<polygon fill="#b29f84" stroke="#b29f84" points="937.36,-433.51 926.86,-432.05 934.16,-439.74 937.36,-433.51"/>
</a>
</g>
<g id="a_edge26&#45;label"><a xlink:title="github.com/harpy&#45;wings/fibonacci&#45;kenshi/pkg/fibonacci.(*Fibonacci).f &#45;&gt; github.com/patrickmn/go&#45;cache.(*cache).Set (23.92MB)">
<text text-anchor="middle" x="1035.75" y="-493.57" font-family="Times New Roman,serif" font-size="14.00"> 23.92MB</text>
</a>
</g>
</g>
<!-- N7 -->
<g id="node7" class="node">
<title>N7</title>
<g id="a_node7"><a xlink:title="github.com/harpy&#45;wings/fibonacci&#45;kenshi/pkg/fibonacci.(*Fibonacci).valKey (221.62MB)">
<polygon fill="#eddad5" stroke="#b22300" points="1161.5,-440.62 1058.5,-440.62 1058.5,-376.38 1161.5,-376.38 1161.5,-440.62"/>
<text text-anchor="middle" x="1110" y="-427.12" font-family="Times New Roman,serif" font-size="10.00">fibonacci</text>
<text text-anchor="middle" x="1110" y="-415.88" font-family="Times New Roman,serif" font-size="10.00">(*Fibonacci)</text>
<text text-anchor="middle" x="1110" y="-404.62" font-family="Times New Roman,serif" font-size="10.00">valKey</text>
<text text-anchor="middle" x="1110" y="-393.38" font-family="Times New Roman,serif" font-size="10.00">2MB (0.43%)</text>
<text text-anchor="middle" x="1110" y="-382.12" font-family="Times New Roman,serif" font-size="10.00">of 221.62MB (47.69%)</text>
</a>
</g>
</g>
<!-- N2&#45;&gt;N7 -->
<g id="edge21" class="edge">
<title>N2&#45;&gt;N7</title>
<g id="a_edge21"><a xlink:title="github.com/harpy&#45;wings/fibonacci&#45;kenshi/pkg/fibonacci.(*Fibonacci).f &#45;&gt; github.com/harpy&#45;wings/fibonacci&#45;kenshi/pkg/fibonacci.(*Fibonacci).valKey (221.62MB)">
<path fill="none" stroke="#b22300" stroke-width="3" d="M1023.86,-568.29C1039.05,-553.84 1055.89,-535.76 1068,-517 1080.39,-497.81 1090.07,-474.39 1097.01,-454.31"/>
<polygon fill="#b22300" stroke="#b22300" stroke-width="3" points="1100.26,-455.63 1100.05,-445.03 1093.61,-453.45 1100.26,-455.63"/>
</a>
</g>
<g id="a_edge21&#45;label"><a xlink:title="github.com/harpy&#45;wings/fibonacci&#45;kenshi/pkg/fibonacci.(*Fibonacci).f &#45;&gt; github.com/harpy&#45;wings/fibonacci&#45;kenshi/pkg/fibonacci.(*Fibonacci).valKey (221.62MB)">
<text text-anchor="middle" x="1117.12" y="-493.57" font-family="Times New Roman,serif" font-size="14.00"> 221.62MB</text>
</a>
</g>
</g>
<!-- N12 -->
<g id="node12" class="node">
<title>N12</title>
<g id="a_node12"><a xlink:title="math/big.(*Int).Add (212.63MB)">
<polygon fill="#eddad5" stroke="#b22500" points="1286.62,-433.5 1181.38,-433.5 1181.38,-383.5 1286.62,-383.5 1286.62,-433.5"/>
<text text-anchor="middle" x="1234" y="-421.9" font-family="Times New Roman,serif" font-size="8.00">big</text>
<text text-anchor="middle" x="1234" y="-411.4" font-family="Times New Roman,serif" font-size="8.00">(*Int)</text>
<text text-anchor="middle" x="1234" y="-400.9" font-family="Times New Roman,serif" font-size="8.00">Add</text>
<text text-anchor="middle" x="1234" y="-390.4" font-family="Times New Roman,serif" font-size="8.00">0 of 212.63MB (45.76%)</text>
</a>
</g>
</g>
<!-- N2&#45;&gt;N12 -->
<g id="edge23" class="edge">
<title>N2&#45;&gt;N12</title>
<g id="a_edge23"><a xlink:title="github.com/harpy&#45;wings/fibonacci&#45;kenshi/pkg/fibonacci.(*Fibonacci).f &#45;&gt; math/big.(*Int).Add (212.63MB)">
<path fill="none" stroke="#b22500" stroke-width="3" d="M1038.9,-580.97C1073.32,-566.8 1118.19,-545.03 1152,-517 1176.13,-496.99 1197.4,-468.61 1212.22,-446.03"/>
<polygon fill="#b22500" stroke="#b22500" stroke-width="3" points="1215.12,-447.99 1217.54,-437.68 1209.22,-444.23 1215.12,-447.99"/>
</a>
</g>
<g id="a_edge23&#45;label"><a xlink:title="github.com/harpy&#45;wings/fibonacci&#45;kenshi/pkg/fibonacci.(*Fibonacci).f &#45;&gt; math/big.(*Int).Add (212.63MB)">
<text text-anchor="middle" x="1217.12" y="-493.57" font-family="Times New Roman,serif" font-size="14.00"> 212.63MB</text>
</a>
</g>
</g>
<!-- N3 -->
<g id="node3" class="node">
<title>N3</title>
<g id="a_node3"><a xlink:title="github.com/harpy&#45;wings/fibonacci&#45;kenshi/pkg/fibonacci.New (462.68MB)">
<polygon fill="#edd5d5" stroke="#b20000" points="1039.62,-927.75 934.38,-927.75 934.38,-888.25 1039.62,-888.25 1039.62,-927.75"/>
<text text-anchor="middle" x="987" y="-916.15" font-family="Times New Roman,serif" font-size="8.00">fibonacci</text>
<text text-anchor="middle" x="987" y="-905.65" font-family="Times New Roman,serif" font-size="8.00">New</text>
<text text-anchor="middle" x="987" y="-895.15" font-family="Times New Roman,serif" font-size="8.00">0 of 462.68MB (99.57%)</text>
</a>
</g>
</g>
<!-- N9 -->
<g id="node9" class="node">
<title>N9</title>
<g id="a_node9"><a xlink:title="github.com/harpy&#45;wings/fibonacci&#45;kenshi/pkg/fibonacci.(*Fibonacci).init (462.68MB)">
<polygon fill="#edd5d5" stroke="#b20000" points="1039.62,-836.5 934.38,-836.5 934.38,-786.5 1039.62,-786.5 1039.62,-836.5"/>
<text text-anchor="middle" x="987" y="-824.9" font-family="Times New Roman,serif" font-size="8.00">fibonacci</text>
<text text-anchor="middle" x="987" y="-814.4" font-family="Times New Roman,serif" font-size="8.00">(*Fibonacci)</text>
<text text-anchor="middle" x="987" y="-803.9" font-family="Times New Roman,serif" font-size="8.00">init</text>
<text text-anchor="middle" x="987" y="-793.4" font-family="Times New Roman,serif" font-size="8.00">0 of 462.68MB (99.57%)</text>
</a>
</g>
</g>
<!-- N3&#45;&gt;N9 -->
<g id="edge16" class="edge">
<title>N3&#45;&gt;N9</title>
<g id="a_edge16"><a xlink:title="github.com/harpy&#45;wings/fibonacci&#45;kenshi/pkg/fibonacci.New &#45;&gt; github.com/harpy&#45;wings/fibonacci&#45;kenshi/pkg/fibonacci.(*Fibonacci).init (462.68MB)">
<path fill="none" stroke="#b20000" stroke-width="5" d="M987,-887.88C987,-877.79 987,-865.02 987,-852.87"/>
<polygon fill="#b20000" stroke="#b20000" stroke-width="5" points="991.38,-853.23 987,-843.23 982.63,-853.23 991.38,-853.23"/>
</a>
</g>
<g id="a_edge16&#45;label"><a xlink:title="github.com/harpy&#45;wings/fibonacci&#45;kenshi/pkg/fibonacci.New &#45;&gt; github.com/harpy&#45;wings/fibonacci&#45;kenshi/pkg/fibonacci.(*Fibonacci).init (462.68MB)">
<text text-anchor="middle" x="1018.12" y="-856.95" font-family="Times New Roman,serif" font-size="14.00"> 462.68MB</text>
</a>
</g>
</g>
<!-- N4 -->
<g id="node4" class="node">
<title>N4</title>
<g id="a_node4"><a xlink:title="math/big.(*Int).Bytes (218.62MB)">
<polygon fill="#eddad5" stroke="#b22400" points="1110.75,-203.75 895.25,-203.75 895.25,-87.75 1110.75,-87.75 1110.75,-203.75"/>
<text text-anchor="middle" x="1003" y="-176.95" font-family="Times New Roman,serif" font-size="24.00">big</text>
<text text-anchor="middle" x="1003" y="-149.95" font-family="Times New Roman,serif" font-size="24.00">(*Int)</text>
<text text-anchor="middle" x="1003" y="-122.95" font-family="Times New Roman,serif" font-size="24.00">Bytes</text>
<text text-anchor="middle" x="1003" y="-95.95" font-family="Times New Roman,serif" font-size="24.00">218.62MB (47.05%)</text>
</a>
</g>
</g>
<!-- NN4_0 -->
<g id="NN4_0" class="node">
<title>NN4_0</title>
<g id="a_NN4_0"><a xlink:title="83.66MB">
<polygon fill="#f8f8f8" stroke="black" points="875.38,-36 814.62,-36 810.62,-32 810.62,0 871.38,0 875.38,-4 875.38,-36"/>
<polyline fill="none" stroke="black" points="871.38,-32 810.62,-32"/>
<polyline fill="none" stroke="black" points="871.38,-32 871.38,0"/>
<polyline fill="none" stroke="black" points="871.38,-32 875.38,-36"/>
<text text-anchor="middle" x="843" y="-15.65" font-family="Times New Roman,serif" font-size="8.00">768B..2.62kB</text>
</a>
</g>
</g>
<!-- N4&#45;&gt;NN4_0 -->
<g id="edge2" class="edge">
<title>N4&#45;&gt;NN4_0</title>
<g id="a_edge2"><a xlink:title="83.66MB">
<path fill="none" stroke="black" d="M898.66,-87.44C891.21,-81.84 884.05,-75.93 877.5,-69.75 870.23,-62.89 863.65,-54.24 858.24,-46.03"/>
<polygon fill="black" stroke="black" points="861.29,-44.32 853.04,-37.68 855.35,-48.02 861.29,-44.32"/>
</a>
</g>
<g id="a_edge2&#45;label"><a xlink:title="83.66MB">
<text text-anchor="middle" x="905.75" y="-56.45" font-family="Times New Roman,serif" font-size="14.00"> 83.66MB</text>
</a>
</g>
</g>
<!-- NN4_1 -->
<g id="NN4_1" class="node">
<title>NN4_1</title>
<g id="a_NN4_1"><a xlink:title="75.81MB">
<polygon fill="#f8f8f8" stroke="black" points="954.12,-36 897.88,-36 893.88,-32 893.88,0 950.12,0 954.12,-4 954.12,-36"/>
<polyline fill="none" stroke="black" points="950.12,-32 893.88,-32"/>
<polyline fill="none" stroke="black" points="950.12,-32 950.12,0"/>
<polyline fill="none" stroke="black" points="950.12,-32 954.12,-36"/>
<text text-anchor="middle" x="924" y="-15.65" font-family="Times New Roman,serif" font-size="8.00">4kB..4.75kB</text>
</a>
</g>
</g>
<!-- N4&#45;&gt;NN4_1 -->
<g id="edge3" class="edge">
<title>N4&#45;&gt;NN4_1</title>
<g id="a_edge3"><a xlink:title="75.81MB">
<path fill="none" stroke="black" d="M954.74,-87.43C950.7,-81.61 946.88,-75.67 943.5,-69.75 939.41,-62.59 935.84,-54.41 932.92,-46.74"/>
<polygon fill="black" stroke="black" points="936.27,-45.7 929.61,-37.46 929.67,-48.06 936.27,-45.7"/>
</a>
</g>
<g id="a_edge3&#45;label"><a xlink:title="75.81MB">
<text text-anchor="middle" x="971.75" y="-56.45" font-family="Times New Roman,serif" font-size="14.00"> 75.81MB</text>
</a>
</g>
</g>
<!-- NN4_2 -->
<g id="NN4_2" class="node">
<title>NN4_2</title>
<g id="a_NN4_2"><a xlink:title="34.10MB">
<polygon fill="#f8f8f8" stroke="black" points="1033.12,-36 976.88,-36 972.88,-32 972.88,0 1029.12,0 1033.12,-4 1033.12,-36"/>
<polyline fill="none" stroke="black" points="1029.12,-32 972.88,-32"/>
<polyline fill="none" stroke="black" points="1029.12,-32 1029.12,0"/>
<polyline fill="none" stroke="black" points="1029.12,-32 1033.12,-36"/>
<text text-anchor="middle" x="1003" y="-15.65" font-family="Times New Roman,serif" font-size="8.00">3kB..3.12kB</text>
</a>
</g>
</g>
<!-- N4&#45;&gt;NN4_2 -->
<g id="edge4" class="edge">
<title>N4&#45;&gt;NN4_2</title>
<g id="a_edge4"><a xlink:title="34.10MB">
<path fill="none" stroke="black" d="M1003,-87.39C1003,-73.65 1003,-59.54 1003,-47.74"/>
<polygon fill="black" stroke="black" points="1006.5,-47.9 1003,-37.9 999.5,-47.9 1006.5,-47.9"/>
</a>
</g>
<g id="a_edge4&#45;label"><a xlink:title="34.10MB">
<text text-anchor="middle" x="1030.75" y="-56.45" font-family="Times New Roman,serif" font-size="14.00"> 34.10MB</text>
</a>
</g>
</g>
<!-- NN4_3 -->
<g id="NN4_3" class="node">
<title>NN4_3</title>
<g id="a_NN4_3"><a xlink:title="16.05MB">
<polygon fill="#f8f8f8" stroke="black" points="1109,-36 1059,-36 1055,-32 1055,0 1105,0 1109,-4 1109,-36"/>
<polyline fill="none" stroke="black" points="1105,-32 1055,-32"/>
<polyline fill="none" stroke="black" points="1105,-32 1105,0"/>
<polyline fill="none" stroke="black" points="1105,-32 1109,-36"/>
<text text-anchor="middle" x="1082" y="-15.65" font-family="Times New Roman,serif" font-size="8.00">3.38kB</text>
</a>
</g>
</g>
<!-- N4&#45;&gt;NN4_3 -->
<g id="edge5" class="edge">
<title>N4&#45;&gt;NN4_3</title>
<g id="a_edge5"><a xlink:title="16.05MB">
<path fill="none" stroke="black" d="M1048.63,-87.57C1052.67,-81.68 1056.53,-75.68 1060,-69.75 1064.17,-62.62 1068.02,-54.56 1071.3,-46.99"/>
<polygon fill="black" stroke="black" points="1074.5,-48.4 1075.08,-37.82 1068.03,-45.73 1074.5,-48.4"/>
</a>
</g>
<g id="a_edge5&#45;label"><a xlink:title="16.05MB">
<text text-anchor="middle" x="1094.75" y="-56.45" font-family="Times New Roman,serif" font-size="14.00"> 16.05MB</text>
</a>
</g>
</g>
<!-- N5 -->
<g id="node5" class="node">
<title>N5</title>
<g id="a_node5"><a xlink:title="math/big.nat.make (212.63MB)">
<polygon fill="#eddad5" stroke="#b22500" points="1349.75,-203.75 1134.25,-203.75 1134.25,-87.75 1349.75,-87.75 1349.75,-203.75"/>
<text text-anchor="middle" x="1242" y="-176.95" font-family="Times New Roman,serif" font-size="24.00">big</text>
<text text-anchor="middle" x="1242" y="-149.95" font-family="Times New Roman,serif" font-size="24.00">nat</text>
<text text-anchor="middle" x="1242" y="-122.95" font-family="Times New Roman,serif" font-size="24.00">make</text>
<text text-anchor="middle" x="1242" y="-95.95" font-family="Times New Roman,serif" font-size="24.00">212.63MB (45.76%)</text>
</a>
</g>
</g>
<!-- NN5_0 -->
<g id="NN5_0" class="node">
<title>NN5_0</title>
<g id="a_NN5_0"><a xlink:title="76.81MB">
<polygon fill="#f8f8f8" stroke="black" points="1191.12,-36 1134.88,-36 1130.88,-32 1130.88,0 1187.12,0 1191.12,-4 1191.12,-36"/>
<polyline fill="none" stroke="black" points="1187.12,-32 1130.88,-32"/>
<polyline fill="none" stroke="black" points="1187.12,-32 1187.12,0"/>
<polyline fill="none" stroke="black" points="1187.12,-32 1191.12,-36"/>
<text text-anchor="middle" x="1161" y="-15.65" font-family="Times New Roman,serif" font-size="8.00">4kB..4.75kB</text>
</a>
</g>
</g>
<!-- N5&#45;&gt;NN5_0 -->
<g id="edge6" class="edge">
<title>N5&#45;&gt;NN5_0</title>
<g id="a_edge6"><a xlink:title="76.81MB">
<path fill="none" stroke="black" d="M1193.95,-87.3C1189.87,-81.52 1185.98,-75.61 1182.5,-69.75 1178.3,-62.67 1174.49,-54.62 1171.29,-47.05"/>
<polygon fill="black" stroke="black" points="1174.59,-45.86 1167.62,-37.88 1168.09,-48.47 1174.59,-45.86"/>
</a>
</g>
<g id="a_edge6&#45;label"><a xlink:title="76.81MB">
<text text-anchor="middle" x="1209.75" y="-56.45" font-family="Times New Roman,serif" font-size="14.00"> 76.81MB</text>
</a>
</g>
</g>
<!-- NN5_1 -->
<g id="NN5_1" class="node">
<title>NN5_1</title>
<g id="a_NN5_1"><a xlink:title="72.14MB">
<polygon fill="#f8f8f8" stroke="black" points="1274.38,-36 1213.62,-36 1209.62,-32 1209.62,0 1270.38,0 1274.38,-4 1274.38,-36"/>
<polyline fill="none" stroke="black" points="1270.38,-32 1209.62,-32"/>
<polyline fill="none" stroke="black" points="1270.38,-32 1270.38,0"/>
<polyline fill="none" stroke="black" points="1270.38,-32 1274.38,-36"/>
<text text-anchor="middle" x="1242" y="-15.65" font-family="Times New Roman,serif" font-size="8.00">896B..2.62kB</text>
</a>
</g>
</g>
<!-- N5&#45;&gt;NN5_1 -->
<g id="edge7" class="edge">
<title>N5&#45;&gt;NN5_1</title>
<g id="a_edge7"><a xlink:title="72.14MB">
<path fill="none" stroke="black" d="M1242,-87.39C1242,-73.65 1242,-59.54 1242,-47.74"/>
<polygon fill="black" stroke="black" points="1245.5,-47.9 1242,-37.9 1238.5,-47.9 1245.5,-47.9"/>
</a>
</g>
<g id="a_edge7&#45;label"><a xlink:title="72.14MB">
<text text-anchor="middle" x="1269.75" y="-56.45" font-family="Times New Roman,serif" font-size="14.00"> 72.14MB</text>
</a>
</g>
</g>
<!-- NN5_2 -->
<g id="NN5_2" class="node">
<title>NN5_2</title>
<g id="a_NN5_2"><a xlink:title="36.61MB">
<polygon fill="#f8f8f8" stroke="black" points="1353.12,-36 1296.88,-36 1292.88,-32 1292.88,0 1349.12,0 1353.12,-4 1353.12,-36"/>
<polyline fill="none" stroke="black" points="1349.12,-32 1292.88,-32"/>
<polyline fill="none" stroke="black" points="1349.12,-32 1349.12,0"/>
<polyline fill="none" stroke="black" points="1349.12,-32 1353.12,-36"/>
<text text-anchor="middle" x="1323" y="-15.65" font-family="Times New Roman,serif" font-size="8.00">3kB..3.12kB</text>
</a>
</g>
</g>
<!-- N5&#45;&gt;NN5_2 -->
<g id="edge8" class="edge">
<title>N5&#45;&gt;NN5_2</title>
<g id="a_edge8"><a xlink:title="36.61MB">
<path fill="none" stroke="black" d="M1288.35,-87.56C1292.48,-81.67 1296.43,-75.67 1300,-69.75 1304.34,-62.54 1308.39,-54.37 1311.84,-46.72"/>
<polygon fill="black" stroke="black" points="1314.94,-48.38 1315.69,-37.81 1308.51,-45.6 1314.94,-48.38"/>
</a>
</g>
<g id="a_edge8&#45;label"><a xlink:title="36.61MB">
<text text-anchor="middle" x="1334.75" y="-56.45" font-family="Times New Roman,serif" font-size="14.00"> 36.61MB</text>
</a>
</g>
</g>
<!-- NN5_3 -->
<g id="NN5_3" class="node">
<title>NN5_3</title>
<g id="a_NN5_3"><a xlink:title="21.07MB">
<polygon fill="#f8f8f8" stroke="black" points="1428,-36 1378,-36 1374,-32 1374,0 1424,0 1428,-4 1428,-36"/>
<polyline fill="none" stroke="black" points="1424,-32 1374,-32"/>
<polyline fill="none" stroke="black" points="1424,-32 1424,0"/>
<polyline fill="none" stroke="black" points="1424,-32 1428,-36"/>
<text text-anchor="middle" x="1401" y="-15.65" font-family="Times New Roman,serif" font-size="8.00">3.38kB</text>
</a>
</g>
</g>
<!-- N5&#45;&gt;NN5_3 -->
<g id="edge9" class="edge">
<title>N5&#45;&gt;NN5_3</title>
<g id="a_edge9"><a xlink:title="21.07MB">
<path fill="none" stroke="black" d="M1345.97,-87.46C1353.38,-81.86 1360.49,-75.94 1367,-69.75 1374.21,-62.89 1380.7,-54.24 1386.04,-46.03"/>
<polygon fill="black" stroke="black" points="1388.91,-48.04 1391.15,-37.69 1382.94,-44.39 1388.91,-48.04"/>
</a>
</g>
<g id="a_edge9&#45;label"><a xlink:title="21.07MB">
<text text-anchor="middle" x="1407.75" y="-56.45" font-family="Times New Roman,serif" font-size="14.00"> 21.07MB</text>
</a>
</g>
</g>
<!-- NN6_0 -->
<g id="NN6_0" class="node">
<title>NN6_0</title>
<g id="a_NN6_0"><a xlink:title="11.16MB">
<polygon fill="#f8f8f8" stroke="black" points="815,-314.25 765,-314.25 761,-310.25 761,-278.25 811,-278.25 815,-282.25 815,-314.25"/>
<polyline fill="none" stroke="black" points="811,-310.25 761,-310.25"/>
<polyline fill="none" stroke="black" points="811,-310.25 811,-278.25"/>
<polyline fill="none" stroke="black" points="811,-310.25 815,-314.25"/>
<text text-anchor="middle" x="788" y="-293.9" font-family="Times New Roman,serif" font-size="8.00">5.58MB</text>
</a>
</g>
</g>
<!-- N6&#45;&gt;NN6_0 -->
<g id="edge10" class="edge">
<title>N6&#45;&gt;NN6_0</title>
<g id="a_edge10"><a xlink:title="11.16MB">
<path fill="none" stroke="black" d="M822.02,-372.59C816.65,-367.11 811.62,-361.19 807.5,-355 801.65,-346.2 797.39,-335.47 794.38,-325.66"/>
<polygon fill="black" stroke="black" points="797.81,-324.92 791.79,-316.2 791.05,-326.77 797.81,-324.92"/>
</a>
</g>
<g id="a_edge10&#45;label"><a xlink:title="11.16MB">
<text text-anchor="middle" x="835.75" y="-341.7" font-family="Times New Roman,serif" font-size="14.00"> 11.16MB</text>
</a>
</g>
</g>
<!-- NN6_1 -->
<g id="NN6_1" class="node">
<title>NN6_1</title>
<g id="a_NN6_1"><a xlink:title="5.60MB">
<polygon fill="#f8f8f8" stroke="black" points="894,-314.25 844,-314.25 840,-310.25 840,-278.25 890,-278.25 894,-282.25 894,-314.25"/>
<polyline fill="none" stroke="black" points="890,-310.25 840,-310.25"/>
<polyline fill="none" stroke="black" points="890,-310.25 890,-278.25"/>
<polyline fill="none" stroke="black" points="890,-310.25 894,-314.25"/>
<text text-anchor="middle" x="867" y="-293.9" font-family="Times New Roman,serif" font-size="8.00">2.79MB</text>
</a>
</g>
</g>
<!-- N6&#45;&gt;NN6_1 -->
<g id="edge11" class="edge">
<title>N6&#45;&gt;NN6_1</title>
<g id="a_edge11"><a xlink:title="5.60MB">
<path fill="none" stroke="black" d="M867,-372.62C867,-357.53 867,-340.11 867,-325.81"/>
<polygon fill="black" stroke="black" points="870.5,-326.17 867,-316.17 863.5,-326.17 870.5,-326.17"/>
</a>
</g>
<g id="a_edge11&#45;label"><a xlink:title="5.60MB">
<text text-anchor="middle" x="891.38" y="-341.7" font-family="Times New Roman,serif" font-size="14.00"> 5.60MB</text>
</a>
</g>
</g>
<!-- NN6_2 -->
<g id="NN6_2" class="node">
<title>NN6_2</title>
<g id="a_NN6_2"><a xlink:title="2.98MB">
<polygon fill="#f8f8f8" stroke="black" points="966,-314.25 916,-314.25 912,-310.25 912,-278.25 962,-278.25 966,-282.25 966,-314.25"/>
<polyline fill="none" stroke="black" points="962,-310.25 912,-310.25"/>
<polyline fill="none" stroke="black" points="962,-310.25 962,-278.25"/>
<polyline fill="none" stroke="black" points="962,-310.25 966,-314.25"/>
<text text-anchor="middle" x="939" y="-293.9" font-family="Times New Roman,serif" font-size="8.00">1.40MB</text>
</a>
</g>
</g>
<!-- N6&#45;&gt;NN6_2 -->
<g id="edge12" class="edge">
<title>N6&#45;&gt;NN6_2</title>
<g id="a_edge12"><a xlink:title="2.98MB">
<path fill="none" stroke="black" d="M903.73,-372.65C908.57,-367.04 913.17,-361.07 917,-355 922.72,-345.93 927.32,-335.15 930.81,-325.37"/>
<polygon fill="black" stroke="black" points="934.11,-326.54 933.92,-315.94 927.46,-324.34 934.11,-326.54"/>
</a>
</g>
<g id="a_edge12&#45;label"><a xlink:title="2.98MB">
<text text-anchor="middle" x="949.38" y="-341.7" font-family="Times New Roman,serif" font-size="14.00"> 2.98MB</text>
</a>
</g>
</g>
<!-- N7&#45;&gt;N4 -->
<g id="edge22" class="edge">
<title>N7&#45;&gt;N4</title>
<g id="a_edge22"><a xlink:title="github.com/harpy&#45;wings/fibonacci&#45;kenshi/pkg/fibonacci.(*Fibonacci).valKey &#45;&gt; math/big.(*Int).Bytes (218.62MB)">
<path fill="none" stroke="#b22400" stroke-width="3" d="M1059.38,-375.88C1041.04,-361.6 1022.27,-343.01 1011.75,-321.25 996.51,-289.73 993.24,-251.16 994.23,-218.3"/>
<polygon fill="#b22400" stroke="#b22400" stroke-width="3" points="997.71,-218.83 994.71,-208.67 990.72,-218.49 997.71,-218.83"/>
</a>
</g>
<g id="a_edge22&#45;label"><a xlink:title="github.com/harpy&#45;wings/fibonacci&#45;kenshi/pkg/fibonacci.(*Fibonacci).valKey &#45;&gt; math/big.(*Int).Bytes (218.62MB)">
<text text-anchor="middle" x="1043.12" y="-290.82" font-family="Times New Roman,serif" font-size="14.00"> 218.62MB</text>
</a>
</g>
</g>
<!-- NN7_0 -->
<g id="NN7_0" class="node">
<title>NN7_0</title>
<g id="a_NN7_0"><a xlink:title="2MB">
<polygon fill="#f8f8f8" stroke="black" points="1137,-314.25 1087,-314.25 1083,-310.25 1083,-278.25 1133,-278.25 1137,-282.25 1137,-314.25"/>
<polyline fill="none" stroke="black" points="1133,-310.25 1083,-310.25"/>
<polyline fill="none" stroke="black" points="1133,-310.25 1133,-278.25"/>
<polyline fill="none" stroke="black" points="1133,-310.25 1137,-314.25"/>
<text text-anchor="middle" x="1110" y="-293.9" font-family="Times New Roman,serif" font-size="8.00">16B</text>
</a>
</g>
</g>
<!-- N7&#45;&gt;NN7_0 -->
<g id="edge13" class="edge">
<title>N7&#45;&gt;NN7_0</title>
<g id="a_edge13"><a xlink:title="2MB">
<path fill="none" stroke="black" d="M1110,-375.91C1110,-360.14 1110,-341.21 1110,-325.88"/>
<polygon fill="black" stroke="black" points="1113.5,-325.99 1110,-315.99 1106.5,-325.99 1113.5,-325.99"/>
</a>
</g>
<g id="a_edge13&#45;label"><a xlink:title="2MB">
<text text-anchor="middle" x="1125.75" y="-341.7" font-family="Times New Roman,serif" font-size="14.00"> 2MB</text>
</a>
</g>
</g>
<!-- N8 -->
<g id="node8" class="node">
<title>N8</title>
<g id="a_node8"><a xlink:title="github.com/harpy&#45;wings/fibonacci&#45;kenshi/pkg/fibonacci.(*Fibonacci).F (462.68MB)">
<polygon fill="#edd5d5" stroke="#b20000" points="1039.62,-734.75 934.38,-734.75 934.38,-684.75 1039.62,-684.75 1039.62,-734.75"/>
<text text-anchor="middle" x="987" y="-723.15" font-family="Times New Roman,serif" font-size="8.00">fibonacci</text>
<text text-anchor="middle" x="987" y="-712.65" font-family="Times New Roman,serif" font-size="8.00">(*Fibonacci)</text>
<text text-anchor="middle" x="987" y="-702.15" font-family="Times New Roman,serif" font-size="8.00">F</text>
<text text-anchor="middle" x="987" y="-691.65" font-family="Times New Roman,serif" font-size="8.00">0 of 462.68MB (99.57%)</text>
</a>
</g>
</g>
<!-- N8&#45;&gt;N2 -->
<g id="edge14" class="edge">
<title>N8&#45;&gt;N2</title>
<g id="a_edge14"><a xlink:title="github.com/harpy&#45;wings/fibonacci&#45;kenshi/pkg/fibonacci.(*Fibonacci).F &#45;&gt; github.com/harpy&#45;wings/fibonacci&#45;kenshi/pkg/fibonacci.(*Fibonacci).f (462.68MB)">
<path fill="none" stroke="#b20000" stroke-width="5" d="M987,-684.5C987,-674.08 987,-661.53 987,-649.39"/>
<polygon fill="#b20000" stroke="#b20000" stroke-width="5" points="991.38,-649.58 987,-639.58 982.63,-649.58 991.38,-649.58"/>
</a>
</g>
<g id="a_edge14&#45;label"><a xlink:title="github.com/harpy&#45;wings/fibonacci&#45;kenshi/pkg/fibonacci.(*Fibonacci).F &#45;&gt; github.com/harpy&#45;wings/fibonacci&#45;kenshi/pkg/fibonacci.(*Fibonacci).f (462.68MB)">
<text text-anchor="middle" x="1018.12" y="-653.45" font-family="Times New Roman,serif" font-size="14.00"> 462.68MB</text>
</a>
</g>
</g>
<!-- N9&#45;&gt;N8 -->
<g id="edge15" class="edge">
<title>N9&#45;&gt;N8</title>
<g id="a_edge15"><a xlink:title="github.com/harpy&#45;wings/fibonacci&#45;kenshi/pkg/fibonacci.(*Fibonacci).init &#45;&gt; github.com/harpy&#45;wings/fibonacci&#45;kenshi/pkg/fibonacci.(*Fibonacci).F (462.68MB)">
<path fill="none" stroke="#b20000" stroke-width="5" d="M987,-786.1C987,-775.59 987,-763.02 987,-751.19"/>
<polygon fill="#b20000" stroke="#b20000" stroke-width="5" points="991.38,-751.48 987,-741.48 982.63,-751.48 991.38,-751.48"/>
</a>
</g>
<g id="a_edge15&#45;label"><a xlink:title="github.com/harpy&#45;wings/fibonacci&#45;kenshi/pkg/fibonacci.(*Fibonacci).init &#45;&gt; github.com/harpy&#45;wings/fibonacci&#45;kenshi/pkg/fibonacci.(*Fibonacci).F (462.68MB)">
<text text-anchor="middle" x="1018.12" y="-755.2" font-family="Times New Roman,serif" font-size="14.00"> 462.68MB</text>
</a>
</g>
</g>
<!-- N10&#45;&gt;N3 -->
<g id="edge18" class="edge">
<title>N10&#45;&gt;N3</title>
<g id="a_edge18"><a xlink:title="github.com/harpy&#45;wings/fibonacci&#45;kenshi/pkg/fibonacci.TestF &#45;&gt; github.com/harpy&#45;wings/fibonacci&#45;kenshi/pkg/fibonacci.New (233.50MB)">
<path fill="none" stroke="#b22100" stroke-width="3" d="M987,-984.38C987,-972.34 987,-956.46 987,-942.39"/>
<polygon fill="#b22100" stroke="#b22100" stroke-width="3" points="990.5,-942.64 987,-932.64 983.5,-942.64 990.5,-942.64"/>
</a>
</g>
<g id="a_edge18&#45;label"><a xlink:title="github.com/harpy&#45;wings/fibonacci&#45;kenshi/pkg/fibonacci.TestF &#45;&gt; github.com/harpy&#45;wings/fibonacci&#45;kenshi/pkg/fibonacci.New (233.50MB)">
<text text-anchor="middle" x="1018.12" y="-948.2" font-family="Times New Roman,serif" font-size="14.00"> 233.50MB</text>
</a>
</g>
</g>
<!-- N11&#45;&gt;N3 -->
<g id="edge19" class="edge">
<title>N11&#45;&gt;N3</title>
<g id="a_edge19"><a xlink:title="github.com/harpy&#45;wings/fibonacci&#45;kenshi/pkg/fibonacci.TestNew.func1 &#45;&gt; github.com/harpy&#45;wings/fibonacci&#45;kenshi/pkg/fibonacci.New (228.63MB)">
<path fill="none" stroke="#b22200" stroke-width="3" d="M1086.09,-979.04C1076.86,-968.06 1065.13,-955.42 1053,-945.75 1048.57,-942.22 1043.75,-938.83 1038.81,-935.64"/>
<polygon fill="#b22200" stroke="#b22200" stroke-width="3" points="1040.66,-932.67 1030.29,-930.5 1037.04,-938.66 1040.66,-932.67"/>
</a>
</g>
<g id="a_edge19&#45;label"><a xlink:title="github.com/harpy&#45;wings/fibonacci&#45;kenshi/pkg/fibonacci.TestNew.func1 &#45;&gt; github.com/harpy&#45;wings/fibonacci&#45;kenshi/pkg/fibonacci.New (228.63MB)">
<text text-anchor="middle" x="1099.12" y="-948.2" font-family="Times New Roman,serif" font-size="14.00"> 228.63MB</text>
</a>
</g>
</g>
<!-- N13 -->
<g id="node13" class="node">
<title>N13</title>
<g id="a_node13"><a xlink:title="math/big.nat.add (212.63MB)">
<polygon fill="#eddad5" stroke="#b22500" points="1292.62,-321.25 1187.38,-321.25 1187.38,-271.25 1292.62,-271.25 1292.62,-321.25"/>
<text text-anchor="middle" x="1240" y="-309.65" font-family="Times New Roman,serif" font-size="8.00">big</text>
<text text-anchor="middle" x="1240" y="-299.15" font-family="Times New Roman,serif" font-size="8.00">nat</text>
<text text-anchor="middle" x="1240" y="-288.65" font-family="Times New Roman,serif" font-size="8.00">add</text>
<text text-anchor="middle" x="1240" y="-278.15" font-family="Times New Roman,serif" font-size="8.00">0 of 212.63MB (45.76%)</text>
</a>
</g>
</g>
<!-- N12&#45;&gt;N13 -->
<g id="edge24" class="edge">
<title>N12&#45;&gt;N13</title>
<g id="a_edge24"><a xlink:title="math/big.(*Int).Add &#45;&gt; math/big.nat.add (212.63MB)">
<path fill="none" stroke="#b22500" stroke-width="3" d="M1235.33,-383.03C1236.09,-369.19 1237.04,-351.56 1237.9,-335.89"/>
<polygon fill="#b22500" stroke="#b22500" stroke-width="3" points="1241.38,-336.36 1238.43,-326.18 1234.39,-335.98 1241.38,-336.36"/>
</a>
</g>
<g id="a_edge24&#45;label"><a xlink:title="math/big.(*Int).Add &#45;&gt; math/big.nat.add (212.63MB)">
<text text-anchor="middle" x="1268.12" y="-341.7" font-family="Times New Roman,serif" font-size="14.00"> 212.63MB</text>
</a>
</g>
</g>
<!-- N13&#45;&gt;N5 -->
<g id="edge25" class="edge">
<title>N13&#45;&gt;N5</title>
<g id="a_edge25"><a xlink:title="math/big.nat.add &#45;&gt; math/big.nat.make (212.63MB)">
<path fill="none" stroke="#b22500" stroke-width="3" d="M1240.33,-271.06C1240.52,-256.59 1240.78,-237.36 1241.04,-218.37"/>
<polygon fill="#b22500" stroke="#b22500" stroke-width="3" points="1244.53,-218.56 1241.17,-208.51 1237.53,-218.46 1244.53,-218.56"/>
</a>
</g>
<g id="a_edge25&#45;label"><a xlink:title="math/big.nat.add &#45;&gt; math/big.nat.make (212.63MB)">
<text text-anchor="middle" x="1271.12" y="-239.95" font-family="Times New Roman,serif" font-size="14.00"> 212.63MB</text>
<text text-anchor="middle" x="1271.12" y="-224.2" font-family="Times New Roman,serif" font-size="14.00"> (inline)</text>
</a>
</g>
</g>
</g>
</g></svg>
